<svg xmlns="http://www.w3.org/2000/svg" xmlns:xlink="http://www.w3.org/1999/xlink" viewBox="0 0 64 12"><defs><style>.cls-1{fill:#fff;fill-rule:evenodd;}.cls-2{mask:url(#mask);}.cls-3{mask:url(#mask-2);}.cls-4{fill-opacity:0.7;}.cls-5{mask:url(#mask-3);}</style><mask id="mask" x="-100" y="-107" width="264" height="280" maskUnits="userSpaceOnUse"><g id="mask-4"><path id="path-3" class="cls-1" d="M-88,53a120,120,0,0,0,240,0h12V-107H-100V53Z"/></g></mask><mask id="mask-2" x="-8" y="-4" width="28" height="16" maskUnits="userSpaceOnUse"><g id="react-mask-111"><path id="react-path-109" class="cls-1" d="M6,10.05c9.61,0,14,4.45,14-2.49S13.73-4,6-4-8,.62-8,7.56-3.61,10.05,6,10.05Z"/></g></mask><mask id="mask-3" x="44" y="-4" width="28" height="16" maskUnits="userSpaceOnUse"><g id="react-mask-112"><path id="react-path-110" class="cls-1" d="M58,10.05c9.61,0,14,4.45,14-2.49S65.73-4,58-4,44,.62,44,7.56,48.39,10.05,58,10.05Z"/></g></mask></defs><title>Ресурс 1</title><g id="Слой_2" data-name="Слой 2"><g id="Слой_1-2" data-name="Слой 1"><g class="cls-2"><g id="Avataaar"><g id="Face"><g id="Eye"><g class="cls-3"><circle class="cls-4" cx="6" cy="6" r="6"/></g></g><g class="cls-5"><circle class="cls-4" cx="58" cy="6" r="6"/></g></g></g></g></g></g></svg>