<?xml version="1.0" encoding="utf-8"?>
<!-- Generator: Adobe Illustrator 23.0.1, SVG Export Plug-In . SVG Version: 6.00 Build 0)  -->
<svg version="1.1" id="Слой_1" xmlns="http://www.w3.org/2000/svg" xmlns:xlink="http://www.w3.org/1999/xlink" x="0px" y="0px"
	 viewBox="0 0 264 280" style="enable-background:new 0 0 264 280;" xml:space="preserve">
<style type="text/css">
	.st0{fill-rule:evenodd;clip-rule:evenodd;fill:#E6E6E6;}
	.st1{filter:url(#Adobe_OpacityMaskFilter);}
	.st2{fill-rule:evenodd;clip-rule:evenodd;fill:#FFFFFF;}
	.st3{mask:url(#mask-2_1_);}
	.st4{fill-rule:evenodd;clip-rule:evenodd;fill:#65C9FF;}
	.st5{filter:url(#Adobe_OpacityMaskFilter_1_);}
	.st6{mask:url(#mask-4_1_);}
	.st7{fill-rule:evenodd;clip-rule:evenodd;fill:#D0C6AC;}
	.st8{filter:url(#Adobe_OpacityMaskFilter_2_);}
	.st9{mask:url(#mask-6_1_);}
	.st10{fill-rule:evenodd;clip-rule:evenodd;fill:#EDB98A;}
	.st11{filter:url(#Adobe_OpacityMaskFilter_3_);}
	.st12{mask:url(#mask-6_2_);fill-rule:evenodd;clip-rule:evenodd;fill-opacity:0.1;}
	.st13{filter:url(#Adobe_OpacityMaskFilter_4_);}
	.st14{mask:url(#react-mask-2_1_);}
	.st15{fill-rule:evenodd;clip-rule:evenodd;fill:#262E33;}
	.st16{filter:url(#Adobe_OpacityMaskFilter_5_);}
	.st17{opacity:0.6;mask:url(#react-mask-2_2_);}
	.st18{fill-rule:evenodd;clip-rule:evenodd;fill-opacity:0.16;}
	.st19{fill-rule:evenodd;clip-rule:evenodd;fill:#3A4C5A;}
	.st20{fill-rule:evenodd;clip-rule:evenodd;fill:#2F4351;}
	.st21{fill-rule:evenodd;clip-rule:evenodd;fill-opacity:0.7;}
	.st22{fill-opacity:0.6;}
	.st23{filter:url(#Adobe_OpacityMaskFilter_6_);}
	.st24{mask:url(#react-mask-94_1_);}
	.st25{fill-rule:evenodd;clip-rule:evenodd;fill:#331B0C;}
	.st26{filter:url(#Adobe_OpacityMaskFilter_7_);}
	.st27{mask:url(#react-mask-103_1_);}
	.st28{fill-rule:evenodd;clip-rule:evenodd;fill:#4A312C;}
	.st29{fill-rule:evenodd;clip-rule:evenodd;fill:#1F3140;}
	.st30{filter:url(#Adobe_OpacityMaskFilter_8_);}
	.st31{mask:url(#react-mask-93_1_);}
</style>
<desc>Created with getavataaars.com</desc>
<g>
	<g transform="translate(-825.000000, -1100.000000)">
		<g transform="translate(825.000000, 1100.000000)">
			<g id="Circle" transform="translate(12.000000, 40.000000)">
				<g id="Circle-Background">
					<circle class="st0" cx="120" cy="120" r="120"/>
				</g>
				<defs>
					<filter id="Adobe_OpacityMaskFilter" filterUnits="userSpaceOnUse" x="0" y="0" width="240" height="240">
						<feColorMatrix  type="matrix" values="1 0 0 0 0  0 1 0 0 0  0 0 1 0 0  0 0 0 1 0"/>
					</filter>
				</defs>
				<mask maskUnits="userSpaceOnUse" x="0" y="0" width="240" height="240" id="mask-2_1_">
					<g class="st1">
						<circle id="path-1_1_" class="st2" cx="120" cy="120" r="120"/>
					</g>
				</mask>
				<g class="st3">
					<rect y="0" class="st4" width="240" height="240"/>
				</g>
			</g>
			<g id="Mask">
			</g>
			<defs>
				<filter id="Adobe_OpacityMaskFilter_1_" filterUnits="userSpaceOnUse" x="-1" y="0" width="281" height="316">
					<feColorMatrix  type="matrix" values="1 0 0 0 0  0 1 0 0 0  0 0 1 0 0  0 0 0 1 0"/>
				</filter>
			</defs>
			<mask maskUnits="userSpaceOnUse" x="-1" y="0" width="281" height="316" id="mask-4_1_">
				<g class="st5">
					<path id="path-3_1_" class="st2" d="M12,160c0,66.3,53.7,120,120,120s120-53.7,120-120h12V0H0v160H12z"/>
				</g>
			</mask>
			<g id="Avataaar" class="st6">
				<g id="Body" transform="translate(32.000000, 36.000000)">
					<g>
						<path class="st7" d="M124,144.6V163h4l0,0c39.8,0,72,32.2,72,72v9H0v-9c0-39.8,32.2-72,72-72l0,0h4v-18.4
							c-17.2-8.2-29.6-24.9-31.7-44.7C38.5,99.1,34,94.1,34,88V74c0-5.9,4.3-10.9,10-11.8V56l0,0c0-30.9,25.1-56,56-56l0,0l0,0
							c30.9,0,56,25.1,56,56v6.2c5.7,1,10,5.9,10,11.8v14c0,6.1-4.5,11.1-10.3,11.9C153.6,119.7,141.2,136.4,124,144.6z"/>
					</g>
					<defs>
						<filter id="Adobe_OpacityMaskFilter_2_" filterUnits="userSpaceOnUse" x="-32" y="0" width="264" height="244">
							<feColorMatrix  type="matrix" values="1 0 0 0 0  0 1 0 0 0  0 0 1 0 0  0 0 0 1 0"/>
						</filter>
					</defs>
					<mask maskUnits="userSpaceOnUse" x="-32" y="0" width="264" height="244" id="mask-6_1_">
						<g class="st8">
							<path id="path-5_1_" class="st2" d="M124,144.6V163h4l0,0c39.8,0,72,32.2,72,72v9H0v-9c0-39.8,32.2-72,72-72l0,0h4v-18.4
								c-17.2-8.2-29.6-24.9-31.7-44.7C38.5,99.1,34,94.1,34,88V74c0-5.9,4.3-10.9,10-11.8V56l0,0c0-30.9,25.1-56,56-56l0,0l0,0
								c30.9,0,56,25.1,56,56v6.2c5.7,1,10,5.9,10,11.8v14c0,6.1-4.5,11.1-10.3,11.9C153.6,119.7,141.2,136.4,124,144.6z"/>
						</g>
					</mask>
					<g class="st9">
						<g id="Color" transform="translate(-32.000000, 0.000000)">
							<rect y="0" class="st10" width="264" height="244"/>
						</g>
					</g>
					<defs>
						<filter id="Adobe_OpacityMaskFilter_3_" filterUnits="userSpaceOnUse" x="44" y="79" width="112" height="79">
							<feColorMatrix  type="matrix" values="1 0 0 0 0  0 1 0 0 0  0 0 1 0 0  0 0 0 1 0"/>
						</filter>
					</defs>
					<mask maskUnits="userSpaceOnUse" x="44" y="79" width="112" height="79" id="mask-6_2_">
						<g class="st11">
							<path id="path-5_2_" class="st2" d="M124,144.6V163h4l0,0c39.8,0,72,32.2,72,72v9H0v-9c0-39.8,32.2-72,72-72l0,0h4v-18.4
								c-17.2-8.2-29.6-24.9-31.7-44.7C38.5,99.1,34,94.1,34,88V74c0-5.9,4.3-10.9,10-11.8V56l0,0c0-30.9,25.1-56,56-56l0,0l0,0
								c30.9,0,56,25.1,56,56v6.2c5.7,1,10,5.9,10,11.8v14c0,6.1-4.5,11.1-10.3,11.9C153.6,119.7,141.2,136.4,124,144.6z"/>
						</g>
					</mask>
					<path id="Neck-Shadow" class="st12" d="M156,79v23c0,30.9-25.1,56-56,56s-56-25.1-56-56V79v15c0,30.9,25.1,56,56,56
						s56-25.1,56-56V79z"/>
				</g>
				<g transform="translate(0.000000, 170.000000)">
					<g id="Shirt" transform="translate(32.000000, 29.000000)">
						<g id="Clothes">
							<path class="st0" d="M134,0.3c37,3,66,34,66,71.8V81H0v-8.9C0,34,29.6,2.8,67,0.2c0,0.4,0,0.7,0,1.1
								c0,11.9,15,21.5,33.5,21.5S134,13.2,134,1.3C134,1,134,0.6,134,0.3z"/>
						</g>
						<defs>
							<filter id="Adobe_OpacityMaskFilter_4_" filterUnits="userSpaceOnUse" x="-32" y="-29" width="264" height="110">
								<feColorMatrix  type="matrix" values="1 0 0 0 0  0 1 0 0 0  0 0 1 0 0  0 0 0 1 0"/>
							</filter>
						</defs>
						<mask maskUnits="userSpaceOnUse" x="-32" y="-29" width="264" height="110" id="react-mask-2_1_">
							<g class="st13">
								<path id="react-path-1_1_" class="st2" d="M134,0.3c37,3,66,34,66,71.8V81H0v-8.9C0,34,29.6,2.8,67,0.2c0,0.4,0,0.7,0,1.1
									c0,11.9,15,21.5,33.5,21.5S134,13.2,134,1.3C134,1,134,0.6,134,0.3z"/>
							</g>
						</mask>
						<g class="st14">
							<g transform="translate(-32.000000, -29.000000)">
								<rect y="0" class="st15" width="264" height="110"/>
							</g>
						</g>
						<defs>
							<filter id="Adobe_OpacityMaskFilter_5_" filterUnits="userSpaceOnUse" x="60.9" y="-24.1" width="79.3" height="53.8">
								<feColorMatrix  type="matrix" values="1 0 0 0 0  0 1 0 0 0  0 0 1 0 0  0 0 0 1 0"/>
							</filter>
						</defs>
						<mask maskUnits="userSpaceOnUse" x="60.9" y="-24.1" width="79.3" height="53.8" id="react-mask-2_2_">
							<g class="st16">
								<path id="react-path-1_2_" class="st2" d="M134,0.3c37,3,66,34,66,71.8V81H0v-8.9C0,34,29.6,2.8,67,0.2c0,0.4,0,0.7,0,1.1
									c0,11.9,15,21.5,33.5,21.5S134,13.2,134,1.3C134,1,134,0.6,134,0.3z"/>
							</g>
						</mask>
						<g id="Shadowy" class="st17">
							<g transform="translate(60.000000, -25.000000)">
								<ellipse class="st18" cx="40.5" cy="27.8" rx="39.6" ry="26.9"/>
							</g>
						</g>
					</g>
					<g id="Blazer" transform="translate(32.000000, 28.000000)">
						<path id="Saco" class="st19" d="M68.8,1.1C30.5,2.8,0,34.4,0,73.1l0,0V82h69.4C66,69.9,64,55.7,64,40.5
							C64,26.2,65.7,12.7,68.8,1.1z M131.6,82H200v-8.9c0-38.3-30-69.7-67.8-71.9c3,11.6,4.8,25,4.8,39.3
							C137,55.7,135,69.9,131.6,82z"/>
						<path id="Pocket-hanky" class="st0" d="M149,58l9.6-7.2l0,0c1.4-1.1,3.4-1.1,4.9,0L170,56L149,58z"/>
						<path id="Wing" class="st20" d="M69,0c-4,19.3-2.3,46.7,5,82H58L44,46l6-9l-6-6L63,1C65,0.4,67,0,69,0z"/>
						<path class="st20" d="M131,0c4,19.3,2.3,46.7-5,82h16l14-36l-6-9l6-6L137,1C135,0.4,133,0,131,0z"/>
					</g>
				</g>
				<g id="Face" transform="translate(76.000000, 82.000000)">
					<g transform="translate(2.000000, 52.000000)">
						<path id="Mouth" class="st21" d="M40,15c0,7.7,6.3,14,14,14l0,0c7.7,0,14-6.3,14-14"/>
					</g>
					<g transform="translate(28.000000, 40.000000)">
						<path id="Nose" class="st18" d="M16,8c0,4.4,5.4,8,12,8l0,0c6.6,0,12-3.6,12-8"/>
					</g>
					<g transform="translate(0.000000, 8.000000)">
						<g id="Eye" transform="translate(16.000000, 13.000000)">
							<g id="The-white-stuff">
								<path class="st2" d="M14,14c9.6,0,14,4.5,14-2.5S21.7,0,14,0S0,4.6,0,11.6S4.4,14,14,14z"/>
							</g>
						</g>
						<g transform="translate(68.000000, 13.000000)">
							<g id="Eyeball-Mask">
								<path class="st2" d="M14,14c9.6,0,14,4.5,14-2.5S21.7,0,14,0S0,4.6,0,11.6S4.4,14,14,14z"/>
							</g>
						</g>
					</g>
					<g>
						<g id="I-Browse" transform="translate(12.000000, 6.000000)">
							<path id="Eyebrow" class="st22" d="M3.6,11.2c3.9-5.5,14.6-8.6,23.9-6.3c1.1,0.3,2.2-0.4,2.4-1.5c0.3-1.1-0.4-2.2-1.5-2.4
								C17.7-1.7,5.3,1.9,0.4,8.8c-0.6,0.9-0.4,2.1,0.5,2.8S3,12.1,3.6,11.2z"/>
							<path class="st22" d="M84.4,11.2c-3.9-5.5-14.6-8.6-23.9-6.3c-1.1,0.3-2.2-0.4-2.4-1.5s0.4-2.2,1.5-2.4
								c10.7-2.6,23.2,0.9,28.1,7.9c0.6,0.9,0.4,2.1-0.5,2.8S85,12.1,84.4,11.2z"/>
						</g>
					</g>
				</g>
				<g id="Top">
					<defs>
						<filter id="Adobe_OpacityMaskFilter_6_" filterUnits="userSpaceOnUse" x="-1" y="0" width="281" height="316">
							<feColorMatrix  type="matrix" values="1 0 0 0 0  0 1 0 0 0  0 0 1 0 0  0 0 0 1 0"/>
						</filter>
					</defs>
					<mask maskUnits="userSpaceOnUse" x="-1" y="0" width="281" height="316" id="react-mask-94_1_">
						<g class="st23">
							<rect id="react-path-96_1_" y="0" class="st2" width="264" height="280"/>
						</g>
					</mask>
					<g class="st24">
						<g transform="translate(-1.000000, 0.000000)">
							<g transform="translate(49.000000, 72.000000)">
								<g id="Lite-Beard">
									<path class="st25" d="M101.4,98.2c-2.5,2.3-5.2,3.3-8.6,2.6c-0.6-0.1-3-4.5-8.9-4.5c-5.9,0-8.3,4.4-8.9,4.5
										c-3.4,0.7-6.1-0.3-8.6-2.6c-4.7-4.3-8.7-10.3-6.3-16.7c1.2-3.4,3.2-7.1,6.9-8.2c3.9-1.2,9.3,0,13.3-0.8
										c1.3-0.3,2.7-0.7,3.6-1.5c0.9,0.8,2.3,1.2,3.6,1.5c3.9,0.8,9.4-0.4,13.3,0.8c3.6,1.1,5.6,4.8,6.9,8.2
										C110.1,87.9,106.2,93.9,101.4,98.2 M140.1,26c-3.4,8.4-2.1,18.9-2.7,27.7c-0.5,7.2-2,17.9-8.4,22.5
										c-3.3,2.4-9.2,6.3-13.4,5.2c-2.9-0.8-3.2-9.2-7.1-12.3c-4.4-3.6-9.8-5.1-15.3-4.9c-2.4,0.1-7.2,0.1-9.1,1.9
										c-2-1.8-6.8-1.8-9.1-1.9c-5.5-0.2-10.9,1.3-15.3,4.9c-3.8,3.1-4.2,11.5-7.1,12.3c-4.3,1.1-10.2-2.9-13.4-5.2
										c-6.4-4.6-7.9-15.4-8.4-22.5C30,44.9,31.3,34.4,27.9,26c-1.7,0-0.6,16.1-0.6,16.1v20.4c0,15.3,9.6,38.2,30.8,46.9
										C63.3,111.5,75,115,84,115s20.7-3.1,25.9-5.3c21.2-8.7,30.7-32,30.8-47.2V42.1C140.6,42.1,141.7,26,140.1,26"/>
								</g>
								<defs>
									<filter id="Adobe_OpacityMaskFilter_7_" filterUnits="userSpaceOnUse" x="-32" y="0" width="264" height="244">
										<feColorMatrix  type="matrix" values="1 0 0 0 0  0 1 0 0 0  0 0 1 0 0  0 0 0 1 0"/>
									</filter>
								</defs>
								<mask maskUnits="userSpaceOnUse" x="-32" y="0" width="264" height="244" id="react-mask-103_1_">
									<g class="st26">
										<path id="react-path-104_1_" class="st2" d="M101.4,98.2c-2.5,2.3-5.2,3.3-8.6,2.6c-0.6-0.1-3-4.5-8.9-4.5
											c-5.9,0-8.3,4.4-8.9,4.5c-3.4,0.7-6.1-0.3-8.6-2.6c-4.7-4.3-8.7-10.3-6.3-16.7c1.2-3.4,3.2-7.1,6.9-8.2
											c3.9-1.2,9.3,0,13.3-0.8c1.3-0.3,2.7-0.7,3.6-1.5c0.9,0.8,2.3,1.2,3.6,1.5c3.9,0.8,9.4-0.4,13.3,0.8
											c3.6,1.1,5.6,4.8,6.9,8.2C110.1,87.9,106.2,93.9,101.4,98.2 M140.1,26c-3.4,8.4-2.1,18.9-2.7,27.7
											c-0.5,7.2-2,17.9-8.4,22.5c-3.3,2.4-9.2,6.3-13.4,5.2c-2.9-0.8-3.2-9.2-7.1-12.3c-4.4-3.6-9.8-5.1-15.3-4.9
											c-2.4,0.1-7.2,0.1-9.1,1.9c-2-1.8-6.8-1.8-9.1-1.9c-5.5-0.2-10.9,1.3-15.3,4.9c-3.8,3.1-4.2,11.5-7.1,12.3
											c-4.3,1.1-10.2-2.9-13.4-5.2c-6.4-4.6-7.9-15.4-8.4-22.5C30,44.9,31.3,34.4,27.9,26c-1.7,0-0.6,16.1-0.6,16.1v20.4
											c0,15.3,9.6,38.2,30.8,46.9C63.3,111.5,75,115,84,115s20.7-3.1,25.9-5.3c21.2-8.7,30.7-32,30.8-47.2V42.1
											C140.6,42.1,141.7,26,140.1,26"/>
									</g>
								</mask>
								<g class="st27">
									<g transform="translate(-32.000000, 0.000000)">
										<rect y="0" class="st28" width="264" height="244"/>
									</g>
								</g>
							</g>
							<g id="Short-Hair">
								<path class="st29" d="M180.1,39.9c-2.8-2.8-6-5.2-9.1-7.6c-0.7-0.5-1.4-1-2.1-1.6c-0.2-0.1-1.7-1.2-1.9-1.7
									c-0.5-1-0.2-0.2-0.1-1.4c0.1-1.5,3.1-5.7,0.9-6.7c-1-0.4-2.8,0.7-3.8,1.1c-1.9,0.7-3.8,1.4-5.7,1.9c0.9-1.9,2.7-5.6-0.6-4.6
									c-2.6,0.8-5,2.8-7.6,3.7c0.9-1.4,4.3-5.8,1.2-6.1c-1-0.1-3.8,1.7-4.9,2.1c-3.1,1.2-6.3,1.9-9.6,2.5
									c-11.2,2-24.3,1.4-34.7,6.5c-8,3.9-15.9,10-20.5,17.8c-4.4,7.5-6.1,15.7-7,24.3c-0.7,6.3-0.7,12.8-0.4,19.1
									c0.1,2.1,0.3,11.6,3.3,8.7c1.5-1.4,1.5-7.3,1.9-9.2c0.8-3.9,1.5-7.8,2.7-11.6c2.2-6.7,4.8-13.8,10.3-18.4
									c3.5-3,6-6.9,9.4-9.9c1.5-1.3,0.4-1.2,2.8-1c1.6,0.1,3.3,0.2,4.9,0.2c3.8,0.1,7.6,0.1,11.4,0.1c7.6,0,15.3,0.1,22.9-0.3
									c3.4-0.2,6.8-0.3,10.2-0.6c1.9-0.2,5.2-1.4,6.8-0.5c1.4,0.8,2.9,3.6,3.9,4.7c2.4,2.7,5.3,4.7,8.1,6.9
									c5.9,4.6,8.9,10.3,10.7,17.5c1.8,7.1,1.3,13.7,3.5,20.8c0.4,1.2,1.4,3.4,2.7,1.5c0.2-0.4,0.2-2.3,0.2-3.4
									c0-4.5,1.1-7.9,1.1-12.5C190.9,68.5,190.5,50.5,180.1,39.9z"/>
							</g>
							<defs>
								<filter id="Adobe_OpacityMaskFilter_8_" filterUnits="userSpaceOnUse" x="0" y="0" width="264" height="280">
									<feColorMatrix  type="matrix" values="1 0 0 0 0  0 1 0 0 0  0 0 1 0 0  0 0 0 1 0"/>
								</filter>
							</defs>
							<mask maskUnits="userSpaceOnUse" x="0" y="0" width="264" height="280" id="react-mask-93_1_">
								<g class="st30">
									<path id="react-path-95_1_" class="st2" d="M180.1,39.9c-2.8-2.8-6-5.2-9.1-7.6c-0.7-0.5-1.4-1-2.1-1.6
										c-0.2-0.1-1.7-1.2-1.9-1.7c-0.5-1-0.2-0.2-0.1-1.4c0.1-1.5,3.1-5.7,0.9-6.7c-1-0.4-2.8,0.7-3.8,1.1
										c-1.9,0.7-3.8,1.4-5.7,1.9c0.9-1.9,2.7-5.6-0.6-4.6c-2.6,0.8-5,2.8-7.6,3.7c0.9-1.4,4.3-5.8,1.2-6.1
										c-1-0.1-3.8,1.7-4.9,2.1c-3.1,1.2-6.3,1.9-9.6,2.5c-11.2,2-24.3,1.4-34.7,6.5c-8,3.9-15.9,10-20.5,17.8
										c-4.4,7.5-6.1,15.7-7,24.3c-0.7,6.3-0.7,12.8-0.4,19.1c0.1,2.1,0.3,11.6,3.3,8.7c1.5-1.4,1.5-7.3,1.9-9.2
										c0.8-3.9,1.5-7.8,2.7-11.6c2.2-6.7,4.8-13.8,10.3-18.4c3.5-3,6-6.9,9.4-9.9c1.5-1.3,0.4-1.2,2.8-1c1.6,0.1,3.3,0.2,4.9,0.2
										c3.8,0.1,7.6,0.1,11.4,0.1c7.6,0,15.3,0.1,22.9-0.3c3.4-0.2,6.8-0.3,10.2-0.6c1.9-0.2,5.2-1.4,6.8-0.5
										c1.4,0.8,2.9,3.6,3.9,4.7c2.4,2.7,5.3,4.7,8.1,6.9c5.9,4.6,8.9,10.3,10.7,17.5c1.8,7.1,1.3,13.7,3.5,20.8
										c0.4,1.2,1.4,3.4,2.7,1.5c0.2-0.4,0.2-2.3,0.2-3.4c0-4.5,1.1-7.9,1.1-12.5C190.9,68.5,190.5,50.5,180.1,39.9z"/>
								</g>
							</mask>
							<g class="st31">
								<g transform="translate(0.000000, 0.000000) ">
									<rect y="0" class="st28" width="264" height="280"/>
								</g>
							</g>
						</g>
					</g>
				</g>
			</g>
		</g>
	</g>
</g>
</svg>
