<svg xmlns="http://www.w3.org/2000/svg" style="display: none;">
    <defs>
        <symbol id="icon-bars" viewBox="0 0 512 512">
            <path d="M491.318,235.318H20.682C9.26,235.318,0,244.577,0,256s9.26,20.682,20.682,20.682h470.636 c11.423,0,20.682-9.259,20.682-20.682C512,244.578,502.741,235.318,491.318,235.318z"/>
            <path d="M491.318,78.439H20.682C9.26,78.439,0,87.699,0,99.121c0,11.422,9.26,20.682,20.682,20.682h470.636 c11.423,0,20.682-9.26,20.682-20.682C512,87.699,502.741,78.439,491.318,78.439z"/>
            <path d="M491.318,392.197H20.682C9.26,392.197,0,401.456,0,412.879s9.26,20.682,20.682,20.682h470.636 c11.423,0,20.682-9.259,20.682-20.682S502.741,392.197,491.318,392.197z"/>
        </symbol>

        <symbol id="icon-facebook" viewBox="0 0 22 40">
            <path d="M20.9982 0.00832267L15.8112 0C9.98373 0 6.21776 3.8638 6.21776 9.84405V14.3828H1.00241C0.551744 14.3828 0.186798 14.7482 0.186798 15.1989V21.775C0.186798 22.2257 0.55216 22.5906 1.00241 22.5906H6.21776V39.1844C6.21776 39.6351 6.5827 40 7.03337 40H13.8379C14.2886 40 14.6535 39.6346 14.6535 39.1844V22.5906H20.7515C21.2022 22.5906 21.5671 22.2257 21.5671 21.775L21.5696 15.1989C21.5696 14.9825 21.4835 14.7752 21.3307 14.6221C21.178 14.469 20.9699 14.3828 20.7536 14.3828H14.6535V10.5353C14.6535 8.68595 15.0942 7.74716 17.5032 7.74716L20.9974 7.74591C21.4477 7.74591 21.8126 7.38054 21.8126 6.93029V0.823944C21.8126 0.374104 21.4481 0.00915494 20.9982 0.00832267Z"/>
        </symbol>

        <symbol id="icon-github" viewBox="0 0 40 41">
            <path d="M37.3169 10.7C35.5284 7.55889 33.1025 5.07204 30.0385 3.23893C26.974 1.40572 23.6286 0.489349 19.9997 0.489349C16.3713 0.489349 13.0247 1.406 9.96085 3.23893C6.89656 5.07195 4.47074 7.55889 2.6823 10.7C0.894131 13.8411 0 17.2711 0 20.9901C0 25.4574 1.27147 29.4745 3.81504 33.0425C6.35833 36.6107 9.64389 39.0798 13.6714 40.45C14.1403 40.5392 14.4873 40.4765 14.713 40.2634C14.9387 40.0501 15.0515 39.7828 15.0515 39.4629C15.0515 39.4095 15.047 38.9292 15.0383 38.0214C15.0294 37.1137 15.0252 36.3217 15.0252 35.646L14.4262 35.7522C14.0443 35.824 13.5625 35.8543 12.9809 35.8457C12.3995 35.8374 11.796 35.775 11.1711 35.6588C10.546 35.5438 9.9645 35.2768 9.42627 34.8586C8.88831 34.4404 8.50642 33.893 8.28067 33.2172L8.02027 32.6029C7.84669 32.1939 7.57343 31.7396 7.20011 31.2416C6.82679 30.7432 6.44927 30.4053 6.06737 30.2274L5.88504 30.0936C5.76355 30.0047 5.65082 29.8974 5.54656 29.773C5.4424 29.6485 5.36442 29.524 5.31234 29.3993C5.26016 29.2745 5.3034 29.1721 5.44249 29.0918C5.58159 29.0114 5.83296 28.9725 6.19771 28.9725L6.71834 29.0522C7.06557 29.1236 7.49508 29.3366 8.00741 29.6928C8.51946 30.0486 8.94039 30.5112 9.2703 31.0805C9.6698 31.8103 10.1511 32.3664 10.7156 32.7491C11.2797 33.1318 11.8483 33.3228 12.4211 33.3228C12.9939 33.3228 13.4887 33.2783 13.9055 33.1898C14.3219 33.1008 14.7125 32.967 15.0773 32.7891C15.2335 31.5963 15.6589 30.6799 16.3531 30.0394C15.3637 29.9328 14.4741 29.7722 13.6839 29.5588C12.8942 29.345 12.0782 28.9982 11.2363 28.5172C10.394 28.0369 9.69524 27.4405 9.13987 26.729C8.5844 26.0171 8.12853 25.0825 7.77291 23.926C7.4171 22.7691 7.23914 21.4345 7.23914 19.9219C7.23914 17.7682 7.92504 15.9354 9.29657 14.4226C8.65408 12.8034 8.71474 10.9883 9.47871 8.97734C9.98219 8.81699 10.7288 8.93732 11.7183 9.33759C12.7079 9.73804 13.4325 10.0811 13.8927 10.3655C14.353 10.6498 14.7217 10.8908 14.9996 11.0862C16.6144 10.6236 18.2809 10.3923 19.9995 10.3923C21.7181 10.3923 23.3849 10.6236 24.9999 11.0862L25.9894 10.4458C26.6661 10.0185 27.4652 9.62696 28.3848 9.27102C29.3049 8.91526 30.0085 8.81727 30.4948 8.97762C31.2758 10.9887 31.3454 12.8037 30.7027 14.4229C32.0741 15.9357 32.7603 17.7689 32.7603 19.9222C32.7603 21.4348 32.5817 22.7736 32.2265 23.9394C31.8707 25.1054 31.4109 26.0391 30.8469 26.7424C30.2822 27.4456 29.579 28.0373 28.7371 28.5175C27.8951 28.9981 27.0788 29.345 26.2891 29.5587C25.499 29.7724 24.6094 29.9331 23.62 30.0398C24.5224 30.8404 24.9737 32.104 24.9737 33.8301V39.4621C24.9737 39.7821 25.0823 40.0492 25.2995 40.2627C25.5165 40.4757 25.8592 40.5385 26.328 40.4492C30.3561 39.0792 33.6417 36.61 36.1849 33.0418C38.7278 29.4738 39.9997 25.4567 39.9997 20.9894C39.9988 17.2709 39.1042 13.8411 37.3169 10.7Z" />
        </symbol>

        <symbol id="icon-instagram" viewBox="0 0 40 40">
            <path d="M27.5 0H12.5C5.5975 0 0 5.5975 0 12.5V27.5C0 34.4025 5.5975 40 12.5 40H27.5C34.4025 40 40 34.4025 40 27.5V12.5C40 5.5975 34.4025 0 27.5 0ZM36.25 27.5C36.25 32.325 32.325 36.25 27.5 36.25H12.5C7.675 36.25 3.75 32.325 3.75 27.5V12.5C3.75 7.675 7.675 3.75 12.5 3.75H27.5C32.325 3.75 36.25 7.675 36.25 12.5V27.5Z" />
            <path d="M20 10C14.4775 10 10 14.4775 10 20C10 25.5225 14.4775 30 20 30C25.5225 30 30 25.5225 30 20C30 14.4775 25.5225 10 20 10ZM20 26.25C16.555 26.25 13.75 23.445 13.75 20C13.75 16.5525 16.555 13.75 20 13.75C23.445 13.75 26.25 16.5525 26.25 20C26.25 23.445 23.445 26.25 20 26.25Z" />
            <path d="M30.7501 10.5825C31.486 10.5825 32.0826 9.98592 32.0826 9.25001C32.0826 8.51409 31.486 7.91751 30.7501 7.91751C30.0141 7.91751 29.4176 8.51409 29.4176 9.25001C29.4176 9.98592 30.0141 10.5825 30.7501 10.5825Z" />
        </symbol>

        <symbol id="icon-medium" viewBox="0 0 40 32">
            <path fill-rule="evenodd" clip-rule="evenodd" d="M4.74333 6.47833C4.79333 5.98667 4.605 5.50167 4.23833 5.17167L0.505 0.671667V0H12.1017L21.065 19.6583L28.945 0H40V0.671667L36.8067 3.73333C36.5317 3.94333 36.395 4.28833 36.4517 4.63V27.1267C36.395 27.4667 36.5317 27.8117 36.8067 28.0217L39.925 31.0833V31.755H24.2383V31.0833L27.47 27.9467C27.7867 27.63 27.7867 27.5367 27.7867 27.0517V8.86833L18.805 31.6817H17.5917L7.13333 8.86833V24.1583C7.04667 24.8 7.26 25.4483 7.71167 25.9117L11.9133 31.0083V31.6817H0V31.0083L4.20167 25.9117C4.65167 25.4467 4.85167 24.795 4.74333 24.1583V6.47833Z" />
        </symbol>

        <symbol id="icon-twitter" viewBox="0 0 47 38">
            <path d="M47 4.496C45.2701 5.25895 43.414 5.77638 41.4638 6.00738C43.4551 4.82049 44.9794 2.93791 45.7018 0.701571C43.8339 1.80071 41.7722 2.59882 39.5753 3.03148C37.8161 1.1635 35.3138 0 32.5383 0C27.2137 0 22.8963 4.29725 22.8963 9.59427C22.8963 10.3455 22.9815 11.0793 23.146 11.7809C15.134 11.3804 8.02956 7.55965 3.27465 1.75393C2.44347 3.16884 1.97062 4.81751 1.97062 6.57739C1.97062 9.90706 3.67407 12.845 6.25861 14.5638C4.6785 14.5112 3.1924 14.0786 1.89137 13.3594V13.4793C1.89137 18.1273 5.21601 22.0065 9.62434 22.8894C8.81666 23.1057 7.96498 23.2256 7.08388 23.2256C6.46128 23.2256 5.85919 23.1642 5.26885 23.0473C6.49645 26.8622 10.0561 29.6363 14.2736 29.7124C10.9754 32.2849 6.81662 33.8138 2.29962 33.8138C1.52136 33.8138 0.754766 33.767 0 33.6823C4.26741 36.4097 9.33366 38 14.7788 38C32.515 38 42.2099 23.3776 42.2099 10.6964L42.1776 9.454C44.0719 8.10919 45.7106 6.41955 47 4.496Z" />
        </symbol>
    </defs>
</svg>