<svg width="190" height="72" viewBox="0 0 190 72" fill="none" xmlns="http://www.w3.org/2000/svg">
<g filter="url(#filter0_i)">
<path d="M22.32 32.816C24.208 33.168 25.76 34.112 26.976 35.648C28.192 37.184 28.8 38.944 28.8 40.928C28.8 42.72 28.352 44.304 27.456 45.68C26.592 47.024 25.328 48.08 23.664 48.848C22 49.616 20.032 50 17.76 50H3.312V16.496H17.136C19.408 16.496 21.36 16.864 22.992 17.6C24.656 18.336 25.904 19.36 26.736 20.672C27.6 21.984 28.032 23.472 28.032 25.136C28.032 27.088 27.504 28.72 26.448 30.032C25.424 31.344 24.048 32.272 22.32 32.816ZM10.032 30.416H16.176C17.776 30.416 19.008 30.048 19.872 29.312C20.736 28.576 21.168 27.52 21.168 26.144C21.168 24.768 20.72 23.696 19.824 22.928C18.96 22.16 17.744 21.776 16.176 21.776H10.032V30.416ZM16.8 44.672C18.432 44.672 19.696 44.288 20.592 43.52C21.52 42.72 21.984 41.584 21.984 40.112C21.984 38.672 21.504 37.536 20.544 36.704C19.584 35.872 18.288 35.456 16.656 35.456H10.032V44.672H16.8ZM50.6678 39.56C50.6678 40.232 50.6198 40.856 50.5238 41.432H35.9437C36.0397 42.896 36.5317 44.048 37.4197 44.888C38.3077 45.728 39.4118 46.148 40.7318 46.148C42.6037 46.148 43.9357 45.344 44.7278 43.736H50.1638C49.5877 45.656 48.4837 47.24 46.8517 48.488C45.2198 49.712 43.2158 50.324 40.8397 50.324C38.9197 50.324 37.1917 49.904 35.6557 49.064C34.1437 48.2 32.9557 46.988 32.0917 45.428C31.2517 43.868 30.8317 42.068 30.8317 40.028C30.8317 37.964 31.2517 36.152 32.0917 34.592C32.9317 33.032 34.1077 31.832 35.6197 30.992C37.1317 30.152 38.8717 29.732 40.8397 29.732C42.7357 29.732 44.4277 30.14 45.9158 30.956C47.4278 31.772 48.5918 32.924 49.4078 34.412C50.2478 35.9 50.6678 37.616 50.6678 39.56ZM45.4477 38.372C45.4237 36.98 44.9557 35.888 44.0437 35.096C43.1557 34.28 42.0397 33.872 40.6957 33.872C39.4237 33.872 38.3557 34.28 37.4917 35.096C36.6277 35.888 36.1117 36.98 35.9437 38.372H45.4477ZM58.4865 33.584C59.1345 32.384 59.9745 31.448 61.0065 30.776C62.0625 30.104 63.2625 29.768 64.6065 29.768V35.06H63.2745C61.6905 35.06 60.4905 35.432 59.6745 36.176C58.8825 36.92 58.4865 38.216 58.4865 40.064V50H53.4465V30.056H58.4865V33.584ZM78.1532 29.768C80.5292 29.768 82.4492 30.524 83.9132 32.036C85.3772 33.524 86.1092 35.612 86.1092 38.3V50H81.0692V38.984C81.0692 37.4 80.6732 36.188 79.8812 35.348C79.0892 34.484 78.0092 34.052 76.6412 34.052C75.2492 34.052 74.1452 34.484 73.3292 35.348C72.5372 36.188 72.1412 37.4 72.1412 38.984V50H67.1012V30.056H72.1412V32.54C72.8132 31.676 73.6652 31.004 74.6972 30.524C75.7532 30.02 76.9052 29.768 78.1532 29.768ZM88.706 39.956C88.706 37.94 89.102 36.152 89.894 34.592C90.71 33.032 91.802 31.832 93.17 30.992C94.562 30.152 96.11 29.732 97.814 29.732C99.302 29.732 100.598 30.032 101.702 30.632C102.83 31.232 103.73 31.988 104.402 32.9V30.056H109.478V50H104.402V47.084C103.754 48.02 102.854 48.8 101.702 49.424C100.574 50.024 99.266 50.324 97.778 50.324C96.098 50.324 94.562 49.892 93.17 49.028C91.802 48.164 90.71 46.952 89.894 45.392C89.102 43.808 88.706 41.996 88.706 39.956ZM104.402 40.028C104.402 38.804 104.162 37.76 103.682 36.896C103.202 36.008 102.554 35.336 101.738 34.88C100.922 34.4 100.046 34.16 99.11 34.16C98.174 34.16 97.31 34.388 96.518 34.844C95.726 35.3 95.078 35.972 94.574 36.86C94.094 37.724 93.854 38.756 93.854 39.956C93.854 41.156 94.094 42.212 94.574 43.124C95.078 44.012 95.726 44.696 96.518 45.176C97.334 45.656 98.198 45.896 99.11 45.896C100.046 45.896 100.922 45.668 101.738 45.212C102.554 44.732 103.202 44.06 103.682 43.196C104.162 42.308 104.402 41.252 104.402 40.028ZM118.54 33.584C119.188 32.384 120.028 31.448 121.06 30.776C122.116 30.104 123.316 29.768 124.66 29.768V35.06H123.328C121.744 35.06 120.544 35.432 119.728 36.176C118.936 36.92 118.54 38.216 118.54 40.064V50H113.5V30.056H118.54V33.584ZM125.859 39.956C125.859 37.94 126.255 36.152 127.047 34.592C127.863 33.032 128.967 31.832 130.359 30.992C131.751 30.152 133.299 29.732 135.003 29.732C136.299 29.732 137.535 30.02 138.711 30.596C139.887 31.148 140.823 31.892 141.519 32.828V23.36H146.631V50H141.519V47.048C140.895 48.032 140.019 48.824 138.891 49.424C137.763 50.024 136.455 50.324 134.967 50.324C133.287 50.324 131.751 49.892 130.359 49.028C128.967 48.164 127.863 46.952 127.047 45.392C126.255 43.808 125.859 41.996 125.859 39.956ZM141.555 40.028C141.555 38.804 141.315 37.76 140.835 36.896C140.355 36.008 139.707 35.336 138.891 34.88C138.075 34.4 137.199 34.16 136.263 34.16C135.327 34.16 134.463 34.388 133.671 34.844C132.879 35.3 132.231 35.972 131.727 36.86C131.247 37.724 131.007 38.756 131.007 39.956C131.007 41.156 131.247 42.212 131.727 43.124C132.231 44.012 132.879 44.696 133.671 45.176C134.487 45.656 135.351 45.896 136.263 45.896C137.199 45.896 138.075 45.668 138.891 45.212C139.707 44.732 140.355 44.06 140.835 43.196C141.315 42.308 141.555 41.252 141.555 40.028ZM170.49 32.816C172.378 33.168 173.93 34.112 175.146 35.648C176.362 37.184 176.97 38.944 176.97 40.928C176.97 42.72 176.522 44.304 175.626 45.68C174.762 47.024 173.498 48.08 171.834 48.848C170.17 49.616 168.202 50 165.93 50H151.482V16.496H165.306C167.578 16.496 169.53 16.864 171.162 17.6C172.826 18.336 174.074 19.36 174.906 20.672C175.77 21.984 176.202 23.472 176.202 25.136C176.202 27.088 175.674 28.72 174.618 30.032C173.594 31.344 172.218 32.272 170.49 32.816ZM158.202 30.416H164.346C165.946 30.416 167.178 30.048 168.042 29.312C168.906 28.576 169.338 27.52 169.338 26.144C169.338 24.768 168.89 23.696 167.994 22.928C167.13 22.16 165.914 21.776 164.346 21.776H158.202V30.416ZM164.97 44.672C166.602 44.672 167.866 44.288 168.762 43.52C169.69 42.72 170.154 41.584 170.154 40.112C170.154 38.672 169.674 37.536 168.714 36.704C167.754 35.872 166.458 35.456 164.826 35.456H158.202V44.672H164.97ZM184.101 50.336C182.885 50.336 181.877 49.968 181.077 49.232C180.309 48.464 179.925 47.52 179.925 46.4C179.925 45.28 180.309 44.352 181.077 43.616C181.877 42.848 182.885 42.464 184.101 42.464C185.285 42.464 186.261 42.848 187.029 43.616C187.797 44.352 188.181 45.28 188.181 46.4C188.181 47.52 187.797 48.464 187.029 49.232C186.261 49.968 185.285 50.336 184.101 50.336Z" fill="#373C46"/>
</g>
<defs>
<filter id="filter0_i" x="3.31201" y="16.496" width="184.869" height="37.84" filterUnits="userSpaceOnUse" color-interpolation-filters="sRGB">
<feFlood flood-opacity="0" result="BackgroundImageFix"/>
<feBlend mode="normal" in="SourceGraphic" in2="BackgroundImageFix" result="shape"/>
<feColorMatrix in="SourceAlpha" type="matrix" values="0 0 0 0 0 0 0 0 0 0 0 0 0 0 0 0 0 0 127 0" result="hardAlpha"/>
<feOffset dy="4"/>
<feGaussianBlur stdDeviation="2"/>
<feComposite in2="hardAlpha" operator="arithmetic" k2="-1" k3="1"/>
<feColorMatrix type="matrix" values="0 0 0 0 1 0 0 0 0 1 0 0 0 0 1 0 0 0 0.25 0"/>
<feBlend mode="normal" in2="shape" result="effect1_innerShadow"/>
</filter>
</defs>
</svg>
